<svg xmlns="http://www.w3.org/2000/svg" width="351.47746" height="31.40597" viewBox="0 0 351.47746 31.40597">
  <defs>
    <style>
      .a {
        fill: #fff;
      }

      .b {
        fill: #de6e18;
      }
    </style>
  </defs>
  <title>2-whitemix-svg</title>
  <g>
    <g>
      <path class="a" d="M0,21.83531a1.5063,1.5063,0,0,1,1.4502-1.48975,1.50143,1.50143,0,0,1,1.41113,1.48975,5.6092,5.6092,0,0,0,5.48828,5.72314c2.626,0,4.50781-1.60742,4.665-3.88086a3.66491,3.66491,0,0,0-1.25488-2.93994L3.959,14.42613A7.055,7.055,0,0,1,1.41113,8.82066a7.02234,7.02234,0,0,1,6.93848-7.252,8.59678,8.59678,0,0,1,6.27246,2.90088,5.80187,5.80187,0,0,1,1.37109,2.66553A1.53938,1.53938,0,0,1,14.582,8.66392a1.68875,1.68875,0,0,1-1.293-.90137A5.42867,5.42867,0,0,0,8.34961,4.5482,4.23953,4.23953,0,0,0,4.2334,8.89928a4.032,4.032,0,0,0,1.5293,3.21436l7.80078,6.311a6.6207,6.6207,0,0,1,2.27344,5.33105c-.15723,4.11621-3.56738,6.78174-7.4873,6.78174A8.5583,8.5583,0,0,1,0,21.83531Z"/>
      <path class="a" d="M22.38281,21.992V10.11412A8.39435,8.39435,0,0,1,30.5752,1.56871a8.39452,8.39452,0,0,1,8.19336,8.54541,1.42394,1.42394,0,0,1-1.41113,1.48975,1.44941,1.44941,0,0,1-1.41211-1.48975,5.37356,5.37356,0,1,0-10.74023,0V21.992a5.37506,5.37506,0,1,0,10.74023,0,1.41215,1.41215,0,1,1,2.82324,0,8.42023,8.42023,0,0,1-8.19336,8.54541A8.39435,8.39435,0,0,1,22.38281,21.992Z"/>
      <path class="a" d="M44.13867,22.10972V10.11412a8.23768,8.23768,0,1,1,16.46387,0V22.10972a8.23768,8.23768,0,1,1-16.46387,0Zm13.60254,0V10.11412a5.37356,5.37356,0,1,0-10.74023,0V22.10972a5.37506,5.37506,0,1,0,10.74023,0Z"/>
      <path class="a" d="M73.10742,29.04771V4.5482H65.07129a1.43253,1.43253,0,0,1-1.4502-1.48975,1.43253,1.43253,0,0,1,1.4502-1.48975H84.04395a1.43253,1.43253,0,0,1,1.4502,1.48975,1.43253,1.43253,0,0,1-1.4502,1.48975H76.00781V29.04771a1.45072,1.45072,0,1,1-2.90039,0Z"/>
      <path class="a" d="M95.29492,29.04771V4.5482H87.25879a1.43253,1.43253,0,0,1-1.4502-1.48975,1.43253,1.43253,0,0,1,1.4502-1.48975h18.97266a1.43253,1.43253,0,0,1,1.4502,1.48975,1.43253,1.43253,0,0,1-1.4502,1.48975H98.19531V29.04771a1.45072,1.45072,0,1,1-2.90039,0Z"/>
    </g>
    <g>
      <path class="a" d="M179.2343,29.04771V3.05845a1.44147,1.44147,0,0,1,1.37207-1.48975H194.954a1.45441,1.45441,0,0,1,1.37207,1.52881A1.40652,1.40652,0,0,1,194.954,4.5482H182.0175V14.58336h10.03516a1.47119,1.47119,0,0,1,0,2.93994H182.0175V27.59752H194.954a1.47345,1.47345,0,0,1,0,2.93994H180.60637A1.418,1.418,0,0,1,179.2343,29.04771Z"/>
      <path class="a" d="M200.83293,29.04771V3.01939a1.43757,1.43757,0,0,1,1.41113-1.45068,1.28106,1.28106,0,0,1,1.21582.74463l11.6416,21.168V3.01939a1.43757,1.43757,0,0,1,1.41113-1.45068,1.46553,1.46553,0,0,1,1.41113,1.45068V29.04771a1.44687,1.44687,0,0,1-1.41113,1.48975,1.21,1.21,0,0,1-1.21484-.74463L203.6552,8.62486V29.04771a1.41321,1.41321,0,1,1-2.82227,0Z"/>
      <path class="a" d="M223.68645,29.04771V3.05845a1.50143,1.50143,0,0,1,1.41113-1.48975h6.31055a8.77852,8.77852,0,0,1,8.585,8.89844,8.95118,8.95118,0,0,1-5.72363,8.38867l6.46875,9.36865a1.38577,1.38577,0,0,1,.27441.82324,1.47386,1.47386,0,0,1-1.41113,1.48975,1.298,1.298,0,0,1-1.17676-.62744l-7.33008-10.54443h-4.54687v9.68213a1.45591,1.45591,0,0,1-1.4502,1.48975A1.47381,1.47381,0,0,1,223.68645,29.04771Zm7.72168-12.66162a5.92228,5.92228,0,0,0,0-11.83789h-4.86035V16.38609Z"/>
      <path class="a" d="M246.18743,29.04771a1.41121,1.41121,0,0,1,1.41113-1.4502h4.74316V4.50865h-4.74316a1.44848,1.44848,0,0,1-1.41113-1.48926,1.41134,1.41134,0,0,1,1.41113-1.45068h12.30859a1.41448,1.41448,0,0,1,1.41113,1.45068,1.4238,1.4238,0,0,1-1.41113,1.48926H255.164V27.59752h4.74316a1.47119,1.47119,0,0,1,0,2.93994H247.59856A1.44861,1.44861,0,0,1,246.18743,29.04771Z"/>
      <path class="a" d="M267.58977,21.9525V10.15367a8.25794,8.25794,0,1,1,16.50293,0V21.9525a8.80138,8.80138,0,0,1-1.37207,4.74316l1.4502,1.60742a1.19746,1.19746,0,0,1,.27441.78418,1.49523,1.49523,0,0,1-1.4502,1.4502,1.34754,1.34754,0,0,1-.74512-.27441l-1.52832-1.41113a7.639,7.639,0,0,1-4.86035,1.68555A8.44366,8.44366,0,0,1,267.58977,21.9525Zm11.13281,4.78271-3.88086-3.99854a1.4969,1.4969,0,0,1,1.01953-2.54785,1.21688,1.21688,0,0,1,.97949.43115l3.80273,3.959a5.99728,5.99728,0,0,0,.627-2.62646V10.15367a5.61921,5.61921,0,0,0-5.40918-5.60547,5.56176,5.56176,0,0,0-5.41016,5.60547V21.9525a5.54891,5.54891,0,0,0,5.41016,5.645A5.192,5.192,0,0,0,278.72258,26.73521Z"/>
      <path class="a" d="M289.89446,21.9525V3.05845a1.44766,1.44766,0,0,1,1.41113-1.48975,1.47382,1.47382,0,0,1,1.41113,1.48975v18.894a5.41457,5.41457,0,1,0,10.81934,0V3.05845a1.44766,1.44766,0,0,1,1.41113-1.48975,1.47381,1.47381,0,0,1,1.41113,1.48975v18.894a8.23919,8.23919,0,1,1-16.46387,0Z"/>
      <path class="a" d="M312.35539,29.04771V3.05845a1.44147,1.44147,0,0,1,1.37207-1.48975h14.34766a1.45441,1.45441,0,0,1,1.37207,1.52881,1.40652,1.40652,0,0,1-1.37207,1.45068H315.1386V14.58336h10.03516a1.47119,1.47119,0,0,1,0,2.93994H315.1386V27.59752h12.93652a1.47345,1.47345,0,0,1,0,2.93994H313.72746A1.418,1.418,0,0,1,312.35539,29.04771Z"/>
      <path class="a" d="M333.52434,29.04771a1.9231,1.9231,0,0,1,.19531-.74463L347.51848,4.5482H336.50286a1.45591,1.45591,0,0,1-1.4502-1.48975,1.48047,1.48047,0,0,1,1.4502-1.48975h13.56348a1.50143,1.50143,0,0,1,1.41113,1.48975,1.91638,1.91638,0,0,1-.19629.78369L337.48332,27.59752h12.583a1.47119,1.47119,0,0,1,0,2.93994H334.93547A1.47382,1.47382,0,0,1,333.52434,29.04771Z"/>
    </g>
    <g>
      <polygon class="b" points="141.73 21.823 146.185 9.583 140.186 9.583 135.731 21.823 141.73 21.823"/>
      <polygon class="a" points="156.492 9.583 150.494 9.583 144.602 25.769 115.733 25.769 113.682 31.406 148.55 31.406 156.492 9.583"/>
      <polygon class="a" points="133.366 0 125.423 21.823 131.422 21.823 137.313 5.637 166.183 5.637 168.234 0 133.366 0"/>
    </g>
  </g>
</svg>
